# xmcd
#
# Track frame offsets: 
#        150
#        9232
#        20903
#        35497
#        52575
#        65072
#        84446
#        101204
#        118633
#        131501
#        147382
#        162986
#        181827
#        199579
#        226174
#        236373
#        245194
#        259777
#
# Disc length: 3672 seconds
#
# Revision: 0
# Processed by: cddbd v1.5.2PL0 Copyright (c) Steve Scherf et al.
# Submitted via: ExactAudioCopyFreeDBPlugin 1.0
#
DISCID=f10e5612
DTITLE=Swampcandy - She Calls To Me
DYEAR=2009
DGENRE=
TTITLE0=St. Micheal
TTITLE1=San Francisco
TTITLE2=Cynical Girl
TTITLE3=Positive Drinkin
TTITLE4=How Easy
TTITLE5=Ain't Got No Lovin
TTITLE6=The Ides Of March
TTITLE7=Pretty Bird
TTITLE8=747
TTITLE9=Carnival Ride
TTITLE10=I Won't Begin
TTITLE11=Broken Toy
TTITLE12=One Gear
TTITLE13=Lines Are Down
TTITLE14=Boogie
TTITLE15=Don't Know What I Say
TTITLE16=Princess of Babylon
TTITLE17=Soon Enough
EXTD=
EXTT0=
EXTT1=
EXTT2=
EXTT3=
EXTT4=
EXTT5=
EXTT6=
EXTT7=
EXTT8=
EXTT9=
EXTT10=
EXTT11=
EXTT12=
EXTT13=
EXTT14=
EXTT15=
EXTT16=
EXTT17=
PLAYORDER=
